<svg xmlns="http://www.w3.org/2000/svg" xmlns:svg="http://www.w3.org/2000/svg" xmlns:xlink="http://www.w3.org/1999/xlink" id="svg2365" width="128" height="128" version="1.0"><defs id="defs2367"><filter id="filter6906" width="1.171" height="1.219" x="-.086" y="-.109"><feGaussianBlur id="feGaussianBlur6908" stdDeviation=".521"/></filter><clipPath id="clipPath6130"><path id="path6132" d="M 125.16669,12.099598 C 122.19641,9.254864 111.282,2.992388 109.84175,5.187905 C 108.10513,7.835221 117.93885,14.870955 121.74406,16.587139 C 123.04716,17.174853 126.16385,13.054607 125.16669,12.099598 z" style="fill:#e20071;fill-opacity:1;fill-rule:evenodd;stroke:none;stroke-width:1px;stroke-linecap:butt;stroke-linejoin:miter;stroke-opacity:1"/></clipPath><linearGradient id="linearGradient3168"><stop id="stop3170" offset="0" style="stop-color:#fff;stop-opacity:1"/><stop id="stop3172" offset="1" style="stop-color:#fff;stop-opacity:0"/></linearGradient><linearGradient id="linearGradient6134" x1="29.344" x2="5.886" y1="35.893" y2="54.61" gradientTransform="matrix(-0.8205678,0.1491734,0.1491734,0.8205678,119.95493,-30.558073)" gradientUnits="userSpaceOnUse" xlink:href="#linearGradient3168"/><linearGradient id="linearGradient2878"><stop id="stop2880" offset="0" style="stop-color:#fff;stop-opacity:1"/><stop id="stop2882" offset="1" style="stop-color:#fff;stop-opacity:0"/></linearGradient><radialGradient id="radialGradient2257" cx="47.794" cy="43.681" r=".047" fx="47.818" fy="43.681" gradientTransform="matrix(1,0,0,140,0,-6071.644)" gradientUnits="userSpaceOnUse" xlink:href="#linearGradient2878"/><linearGradient id="linearGradient2926"><stop id="stop2928" offset="0" style="stop-color:#fff;stop-opacity:1"/><stop id="stop2934" offset=".319" style="stop-color:#fff;stop-opacity:0"/><stop id="stop2930" offset="1" style="stop-color:#fff;stop-opacity:0"/></linearGradient><radialGradient id="radialGradient4868" cx="59.888" cy="-16.595" r="15.015" fx="59.888" fy="-16.595" gradientTransform="matrix(-2.2908472,-1.2912538,-0.4877278,0.8613771,257.00005,93.121214)" gradientUnits="userSpaceOnUse" spreadMethod="reflect" xlink:href="#linearGradient2926"/><linearGradient id="linearGradient2916"><stop id="stop2918" offset="0" style="stop-color:#000;stop-opacity:1"/><stop id="stop2920" offset="1" style="stop-color:#000;stop-opacity:0"/></linearGradient><radialGradient id="radialGradient4871" cx="58.079" cy="51.897" r="15.015" fx="60.05" fy="51.986" gradientTransform="matrix(-2.9412787,-1.1615663,-0.2846191,0.7136661,292.2596,68.533501)" gradientUnits="userSpaceOnUse" xlink:href="#linearGradient2916"/><linearGradient id="linearGradient2948"><stop id="stop2950" offset="0" style="stop-color:#000;stop-opacity:1"/><stop id="stop2956" offset=".148" style="stop-color:#000;stop-opacity:0"/><stop id="stop2960" offset=".424" style="stop-color:#000;stop-opacity:.39607844"/><stop id="stop2958" offset=".574" style="stop-color:#000;stop-opacity:.79061371"/><stop id="stop2962" offset=".787" style="stop-color:#000;stop-opacity:.09386282"/><stop id="stop2952" offset="1" style="stop-color:#000;stop-opacity:0"/></linearGradient><linearGradient id="linearGradient4874" x1="45.277" x2="75.465" y1="41.759" y2="41.512" gradientTransform="matrix(-0.9676045,-0.6692381,-0.6740154,0.9726479,196.65813,26.204038)" gradientUnits="userSpaceOnUse" xlink:href="#linearGradient2948"/><filter id="filter7303" width="1.163" height="1.234" x="-.081" y="-.117"><feGaussianBlur id="feGaussianBlur7305" stdDeviation="1.557"/></filter><clipPath id="clipPath6914"><path id="path6916" d="M 82.925411,-3.435412 L 81.316892,-4.627315 C 81.839741,-15.69481 90.48863,-25.23053 103.93871,-26.883344 C 107.28591,-26.458991 109.49801,-20.714107 110.82559,-16.938578 L 121.37226,-13.3605 L 127.24587,-9.003369 C 124.67754,-3.892162 121.60365,0.875112 117.6736,5.059949 L 111.2143,1.347869 L 103.72658,-8.514759 C 97.52863,-10.498934 89.700195,-9.79438 82.925411,-3.435412 z" style="opacity:1;fill:#34176e;fill-opacity:1;fill-rule:evenodd;stroke:none;stroke-width:.1;stroke-linecap:butt;stroke-linejoin:miter;stroke-miterlimit:4;stroke-dasharray:none;stroke-opacity:1"/></clipPath><linearGradient id="linearGradient2938"><stop id="stop2940" offset="0" style="stop-color:#000;stop-opacity:1"/><stop id="stop2942" offset="1" style="stop-color:#000;stop-opacity:0"/></linearGradient><linearGradient id="linearGradient4880" x1="61.87" x2="61.87" y1="33.319" y2="40.551" gradientTransform="matrix(-0.9676045,-0.6692381,-0.6740154,0.9726479,196.65813,26.204038)" gradientUnits="userSpaceOnUse" xlink:href="#linearGradient2938"/><linearGradient id="linearGradient2854"><stop id="stop2856" offset="0" style="stop-color:#fff;stop-opacity:1"/><stop id="stop2858" offset="1" style="stop-color:#fff;stop-opacity:0"/></linearGradient><linearGradient id="linearGradient4888" x1="106.03" x2="108.787" y1="59.273" y2="55.575" gradientTransform="matrix(-0.9676045,-0.6692381,-0.6740154,0.9726479,196.65813,26.204038)" gradientUnits="userSpaceOnUse" xlink:href="#linearGradient2854"/><radialGradient id="radialGradient4891" cx="94.436" cy="42.71" r="16.633" fx="94.436" fy="42.71" gradientTransform="matrix(-2.2134389,-1.5580054,-0.9195638,1.2855562,320.80105,101.437)" gradientUnits="userSpaceOnUse" xlink:href="#linearGradient2830"/><radialGradient id="radialGradient4894" cx="94.932" cy="43.032" r="16.633" fx="94.932" fy="43.032" gradientTransform="matrix(-1.7759891,-0.8986225,-1.0601326,2.082617,285.11609,4.6753809)" gradientUnits="userSpaceOnUse" xlink:href="#linearGradient2830"/><radialGradient id="radialGradient4897" cx="93.748" cy="43.103" r="16.633" fx="93.748" fy="43.103" gradientTransform="matrix(-1.7759891,-0.8986225,-1.0601326,2.082617,285.11609,4.6753809)" gradientUnits="userSpaceOnUse" xlink:href="#linearGradient2830"/><radialGradient id="radialGradient4900" cx="92.99" cy="42.85" r="16.633" fx="92.99" fy="42.85" gradientTransform="matrix(-1.7759891,-0.8986225,-1.0601326,2.082617,285.11609,4.6753809)" gradientUnits="userSpaceOnUse" xlink:href="#linearGradient2830"/><linearGradient id="linearGradient2830"><stop id="stop2832" offset="0" style="stop-color:#111;stop-opacity:1"/><stop id="stop2838" offset=".143" style="stop-color:#6e6e70;stop-opacity:1"/><stop id="stop2864" offset=".571" style="stop-color:#101010;stop-opacity:1"/><stop id="stop2834" offset="1" style="stop-color:#0d0d0d;stop-opacity:1"/></linearGradient><radialGradient id="radialGradient4903" cx="92.496" cy="43.249" r="16.633" fx="92.496" fy="43.249" gradientTransform="matrix(-1.7759891,-0.8986225,-1.0601326,2.082617,285.11609,4.6753809)" gradientUnits="userSpaceOnUse" xlink:href="#linearGradient2830"/><filter id="filter5739" width="1.118" height="1.508" x="-.059" y="-.254"><feGaussianBlur id="feGaussianBlur5741" stdDeviation="1.528"/></filter><clipPath id="clipPath5354"><path id="path5356" d="M 103.98397,-1.574449 C 105.35028,-1.792233 108.98473,-2.914664 106.17093,-5.692155 C 76.173344,-27.291403 51.99515,-18.323699 42.936426,-12.159439 C 53.098952,-17.891025 78.771948,-21.925123 103.98397,-1.574449 z" style="opacity:1;fill:#00583f;fill-opacity:1;fill-rule:evenodd;stroke:none;stroke-width:1px;stroke-linecap:butt;stroke-linejoin:miter;stroke-opacity:1"/></clipPath><linearGradient id="linearGradient2803"><stop id="stop2809" offset="0" style="stop-color:#e2dcdc;stop-opacity:1"/><stop id="stop2811" offset=".391" style="stop-color:#fff;stop-opacity:1"/><stop id="stop2813" offset=".827" style="stop-color:#dfd9df;stop-opacity:1"/><stop id="stop2815" offset="1" style="stop-color:#c3c3c3;stop-opacity:1"/></linearGradient><linearGradient id="linearGradient4910" x1="62.988" x2="118.029" y1="46.47" y2="62.35" gradientTransform="matrix(-0.9676045,-0.6692381,-0.6740154,0.9726479,196.65813,26.204038)" gradientUnits="userSpaceOnUse" xlink:href="#linearGradient2803"/><radialGradient id="radialGradient2231" cx="-67.615" cy="84.213" r="1.45" fx="-67.047" fy="83.803" gradientTransform="matrix(1,0,0,0.636364,0,30.62293)" gradientUnits="userSpaceOnUse" xlink:href="#linearGradient2370"/><radialGradient id="radialGradient2229" cx="-67.615" cy="84.213" r="1.45" fx="-67.047" fy="83.803" gradientTransform="matrix(1,0,0,0.636364,0,30.62293)" gradientUnits="userSpaceOnUse" xlink:href="#linearGradient2370"/><radialGradient id="radialGradient2227" cx="-67.615" cy="84.213" r="1.45" fx="-67.047" fy="83.803" gradientTransform="matrix(1,0,0,0.636364,0,30.62293)" gradientUnits="userSpaceOnUse" xlink:href="#linearGradient2370"/><radialGradient id="radialGradient2225" cx="-67.615" cy="84.213" r="1.45" fx="-67.047" fy="83.803" gradientTransform="matrix(1,0,0,0.636364,0,30.62293)" gradientUnits="userSpaceOnUse" xlink:href="#linearGradient2370"/><radialGradient id="radialGradient2223" cx="-67.615" cy="84.213" r="1.45" fx="-67.047" fy="83.803" gradientTransform="matrix(1,0,0,0.636364,0,30.62293)" gradientUnits="userSpaceOnUse" xlink:href="#linearGradient2370"/><radialGradient id="radialGradient2221" cx="-67.615" cy="84.213" r="1.45" fx="-67.047" fy="83.803" gradientTransform="matrix(1,0,0,0.636364,0,30.62293)" gradientUnits="userSpaceOnUse" xlink:href="#linearGradient2370"/><radialGradient id="radialGradient2219" cx="-67.615" cy="84.213" r="1.45" fx="-67.047" fy="83.803" gradientTransform="matrix(1,0,0,0.636364,0,30.62293)" gradientUnits="userSpaceOnUse" xlink:href="#linearGradient2370"/><radialGradient id="radialGradient2217" cx="-67.615" cy="84.213" r="1.45" fx="-67.047" fy="83.803" gradientTransform="matrix(1,0,0,0.636364,0,30.62293)" gradientUnits="userSpaceOnUse" xlink:href="#linearGradient2370"/><radialGradient id="radialGradient2215" cx="-67.615" cy="84.213" r="1.45" fx="-67.047" fy="83.803" gradientTransform="matrix(1,0,0,0.636364,0,30.62293)" gradientUnits="userSpaceOnUse" xlink:href="#linearGradient2370"/><radialGradient id="radialGradient2213" cx="-67.615" cy="84.213" r="1.45" fx="-67.047" fy="83.803" gradientTransform="matrix(1,0,0,0.636364,0,30.62293)" gradientUnits="userSpaceOnUse" xlink:href="#linearGradient2370"/><radialGradient id="radialGradient2211" cx="-67.615" cy="84.213" r="1.45" fx="-67.047" fy="83.803" gradientTransform="matrix(1,0,0,0.636364,0,30.62293)" gradientUnits="userSpaceOnUse" xlink:href="#linearGradient2370"/><radialGradient id="radialGradient2209" cx="-67.615" cy="84.213" r="1.45" fx="-67.047" fy="83.803" gradientTransform="matrix(1,0,0,0.636364,0,30.62293)" gradientUnits="userSpaceOnUse" xlink:href="#linearGradient2370"/><radialGradient id="radialGradient2207" cx="-67.615" cy="84.213" r="1.45" fx="-67.047" fy="83.803" gradientTransform="matrix(1,0,0,0.636364,0,30.62293)" gradientUnits="userSpaceOnUse" xlink:href="#linearGradient2370"/><radialGradient id="radialGradient2205" cx="-67.615" cy="84.213" r="1.45" fx="-67.047" fy="83.803" gradientTransform="matrix(1,0,0,0.636364,0,30.62293)" gradientUnits="userSpaceOnUse" xlink:href="#linearGradient2370"/><radialGradient id="radialGradient2203" cx="-67.615" cy="84.213" r="1.45" fx="-67.047" fy="83.803" gradientTransform="matrix(1,0,0,0.636364,0,30.62293)" gradientUnits="userSpaceOnUse" xlink:href="#linearGradient2370"/><radialGradient id="radialGradient2201" cx="-67.615" cy="84.213" r="1.45" fx="-67.047" fy="83.803" gradientTransform="matrix(1,0,0,0.636364,0,30.62293)" gradientUnits="userSpaceOnUse" xlink:href="#linearGradient2370"/><radialGradient id="radialGradient2199" cx="-67.615" cy="84.213" r="1.45" fx="-67.047" fy="83.803" gradientTransform="matrix(1,0,0,0.636364,0,30.62293)" gradientUnits="userSpaceOnUse" xlink:href="#linearGradient2370"/><radialGradient id="radialGradient2197" cx="-67.615" cy="84.213" r="1.45" fx="-67.047" fy="83.803" gradientTransform="matrix(1,0,0,0.636364,0,30.62293)" gradientUnits="userSpaceOnUse" xlink:href="#linearGradient2370"/><radialGradient id="radialGradient2195" cx="-67.615" cy="84.213" r="1.45" fx="-67.047" fy="83.803" gradientTransform="matrix(1,0,0,0.636364,0,30.62293)" gradientUnits="userSpaceOnUse" xlink:href="#linearGradient2370"/><radialGradient id="radialGradient2193" cx="-67.615" cy="84.213" r="1.45" fx="-67.047" fy="83.803" gradientTransform="matrix(1,0,0,0.636364,0,30.62293)" gradientUnits="userSpaceOnUse" xlink:href="#linearGradient2370"/><radialGradient id="radialGradient2191" cx="-67.615" cy="84.213" r="1.45" fx="-67.047" fy="83.803" gradientTransform="matrix(1,0,0,0.636364,0,30.62293)" gradientUnits="userSpaceOnUse" xlink:href="#linearGradient2370"/><radialGradient id="radialGradient2189" cx="-67.615" cy="84.213" r="1.45" fx="-67.047" fy="83.803" gradientTransform="matrix(1,0,0,0.636364,0,30.62293)" gradientUnits="userSpaceOnUse" xlink:href="#linearGradient2370"/><radialGradient id="radialGradient2187" cx="-67.615" cy="84.213" r="1.45" fx="-67.047" fy="83.803" gradientTransform="matrix(1,0,0,0.636364,0,30.62293)" gradientUnits="userSpaceOnUse" xlink:href="#linearGradient2370"/><radialGradient id="radialGradient2185" cx="-67.615" cy="84.213" r="1.45" fx="-67.047" fy="83.803" gradientTransform="matrix(1,0,0,0.636364,0,30.62293)" gradientUnits="userSpaceOnUse" xlink:href="#linearGradient2370"/><radialGradient id="radialGradient2183" cx="-67.615" cy="84.213" r="1.45" fx="-67.047" fy="83.803" gradientTransform="matrix(1,0,0,0.636364,0,30.62293)" gradientUnits="userSpaceOnUse" xlink:href="#linearGradient2370"/><radialGradient id="radialGradient2181" cx="-67.615" cy="84.213" r="1.45" fx="-67.047" fy="83.803" gradientTransform="matrix(1,0,0,0.636364,0,30.62293)" gradientUnits="userSpaceOnUse" xlink:href="#linearGradient2370"/><radialGradient id="radialGradient2179" cx="-67.615" cy="84.213" r="1.45" fx="-67.047" fy="83.803" gradientTransform="matrix(1,0,0,0.636364,0,30.62293)" gradientUnits="userSpaceOnUse" xlink:href="#linearGradient2370"/><radialGradient id="radialGradient2177" cx="-67.615" cy="84.213" r="1.45" fx="-67.047" fy="83.803" gradientTransform="matrix(1,0,0,0.636364,0,30.62293)" gradientUnits="userSpaceOnUse" xlink:href="#linearGradient2370"/><radialGradient id="radialGradient2175" cx="-67.615" cy="84.213" r="1.45" fx="-67.047" fy="83.803" gradientTransform="matrix(1,0,0,0.636364,0,30.62293)" gradientUnits="userSpaceOnUse" xlink:href="#linearGradient2370"/><radialGradient id="radialGradient2173" cx="-67.615" cy="84.213" r="1.45" fx="-67.047" fy="83.803" gradientTransform="matrix(1,0,0,0.636364,0,30.62293)" gradientUnits="userSpaceOnUse" xlink:href="#linearGradient2370"/><radialGradient id="radialGradient2171" cx="-67.615" cy="84.213" r="1.45" fx="-67.047" fy="83.803" gradientTransform="matrix(1,0,0,0.636364,0,30.62293)" gradientUnits="userSpaceOnUse" xlink:href="#linearGradient2370"/><radialGradient id="radialGradient2169" cx="-67.615" cy="84.213" r="1.45" fx="-67.047" fy="83.803" gradientTransform="matrix(1,0,0,0.636364,0,30.62293)" gradientUnits="userSpaceOnUse" xlink:href="#linearGradient2370"/><linearGradient id="linearGradient2370"><stop id="stop2378" offset="0" style="stop-color:#000;stop-opacity:1"/><stop id="stop2374" offset="1" style="stop-color:#2a2a2a;stop-opacity:.29537368"/></linearGradient><radialGradient id="radialGradient2167" cx="-67.615" cy="84.213" r="1.45" fx="-67.047" fy="83.803" gradientTransform="matrix(1,0,0,0.636364,0,30.62293)" gradientUnits="userSpaceOnUse" xlink:href="#linearGradient2370"/><linearGradient id="linearGradient4946" x1="-66.906" x2="-66.906" y1="78.001" y2="77.233" gradientTransform="matrix(1.1764954,0,0,1.1833613,-4.7978353,-75.354716)" gradientUnits="userSpaceOnUse" xlink:href="#linearGradient2352"/><linearGradient id="linearGradient4952" x1="-74.013" x2="-58.207" y1="49.462" y2="65.269" gradientTransform="matrix(1.1764954,0,0,1.1833612,-4.797835,-79.665584)" gradientUnits="userSpaceOnUse" xlink:href="#linearGradient2352"/><linearGradient id="linearGradient4955" x1="36.909" x2="38.452" y1="75.416" y2="75.48" gradientTransform="matrix(0.983361,0.6663259,-0.6582589,0.9697357,55.439719,-32.927491)" gradientUnits="userSpaceOnUse" xlink:href="#linearGradient2322"/><linearGradient id="linearGradient2322"><stop id="stop2324" offset="0" style="stop-color:#000;stop-opacity:1"/><stop id="stop2326" offset="1" style="stop-color:#000;stop-opacity:0"/></linearGradient><linearGradient id="linearGradient4958" x1="37.235" x2="38.615" y1="75.416" y2="75.48" gradientTransform="matrix(-0.9676045,-0.6692381,-0.6740154,0.9726479,144.44832,27.448631)" gradientUnits="userSpaceOnUse" xlink:href="#linearGradient2322"/><linearGradient id="linearGradient4961" x1="45.616" x2="45.616" y1="128.005" y2="125.9" gradientTransform="matrix(-0.9676045,-0.6692381,-0.6740154,0.9726479,144.54699,27.4304)" gradientUnits="userSpaceOnUse" xlink:href="#linearGradient2310"/><linearGradient id="linearGradient2310"><stop id="stop2312" offset="0" style="stop-color:#020202;stop-opacity:1"/><stop id="stop2314" offset="1" style="stop-color:#020202;stop-opacity:0"/></linearGradient><linearGradient id="linearGradient4964" x1="45.241" x2="45.241" y1="61.083" y2="62.415" gradientTransform="matrix(-0.9676045,-0.6692381,-0.6740154,0.9726479,144.36527,27.463989)" gradientUnits="userSpaceOnUse" xlink:href="#linearGradient2310"/><linearGradient id="linearGradient3058"><stop id="stop3060" offset="0" style="stop-color:#9a7600;stop-opacity:1"/><stop id="stop3066" offset=".325" style="stop-color:#e3ad00;stop-opacity:1"/><stop id="stop3070" offset=".667" style="stop-color:#ffcd2c;stop-opacity:1"/><stop id="stop3068" offset=".916" style="stop-color:#e3ad00;stop-opacity:1"/><stop id="stop3062" offset="1" style="stop-color:#b98d00;stop-opacity:1"/></linearGradient><linearGradient id="linearGradient4967" x1="34.913" x2="55.089" y1="94.734" y2="94.734" gradientTransform="matrix(-0.9676045,-0.6692381,-0.6740154,0.9726479,144.54699,27.4304)" gradientUnits="userSpaceOnUse" xlink:href="#linearGradient3058"/><linearGradient id="linearGradient2352"><stop id="stop2354" offset="0" style="stop-color:#000;stop-opacity:1"/><stop id="stop2356" offset="1" style="stop-color:#000;stop-opacity:0"/></linearGradient><linearGradient id="linearGradient4949" x1="-66.906" x2="-66.906" y1="77.1" y2="75.717" gradientTransform="matrix(1.1764965,0,0,1.1833623,-4.7827195,-79.650397)" gradientUnits="userSpaceOnUse" xlink:href="#linearGradient2352"/><linearGradient id="linearGradient2334"><stop id="stop2336" offset="0" style="stop-color:#8d8d8d;stop-opacity:1"/><stop id="stop2342" offset=".277" style="stop-color:#e2dcdc;stop-opacity:1"/><stop id="stop2348" offset=".715" style="stop-color:#fff;stop-opacity:1"/><stop id="stop2344" offset=".807" style="stop-color:#dfd9df;stop-opacity:1"/><stop id="stop2338" offset="1" style="stop-color:#888;stop-opacity:1"/></linearGradient><linearGradient id="linearGradient4970" x1="-70.589" x2="-59.581" y1="67.754" y2="67.754" gradientTransform="matrix(1.1764954,0,0,1.1833613,-4.7978353,-79.665581)" gradientUnits="userSpaceOnUse" xlink:href="#linearGradient2334"/><linearGradient id="linearGradient6959"><stop id="stop6961" offset="0" style="stop-color:#000;stop-opacity:1"/><stop id="stop6963" offset="1" style="stop-color:#000;stop-opacity:0"/></linearGradient><linearGradient id="linearGradient8078" x1=".161" x2="128.161" y1="117.28" y2="117.28" gradientTransform="matrix(0.785268,-7.3677219e-2,3.9462543e-2,0.4492806,22.778321,70.710911)" gradientUnits="userSpaceOnUse" xlink:href="#linearGradient6959"/></defs><g id="layer1"><path id="path6957" d="M 128.04736,113.95979 C 128.28089,116.61848 67.411471,124.50507 39.669521,127.10794 C 11.927571,129.71081 27.766581,126.04917 27.533061,123.39048 C 27.299531,120.73178 11.081461,120.07787 38.823411,117.475 C 66.565361,114.87213 127.81383,111.3011 128.04736,113.95979 z" style="opacity:.32093027;fill:url(#linearGradient8078);fill-opacity:1;fill-rule:nonzero;stroke:none;stroke-width:.31099999;stroke-linecap:round;stroke-linejoin:round;stroke-miterlimit:4;stroke-dashoffset:4;stroke-opacity:1"/><path id="path2874" d="M 81.865056,36.103558 L 80.274934,34.905639 C 85.204914,25.922787 89.34177,14.198553 102.63801,12.53741 C 105.94693,12.9639 108.13372,18.737744 109.44612,22.532309 L 119.87216,26.128429 L 125.67859,30.507526 C 123.13963,35.644506 120.1009,40.435811 116.2158,44.64175 L 109.83038,40.910954 L 102.42831,30.9986 C 96.301248,29.004426 88.562348,29.712528 81.865056,36.103558 z" style="fill:#bfbfc0;fill-opacity:1;fill-rule:evenodd;stroke:none;stroke-width:.1;stroke-linecap:butt;stroke-linejoin:miter;stroke-miterlimit:4;stroke-dasharray:none;stroke-opacity:1"/><rect id="rect2266" width="12.941" height="29.584" x="-87.845" y="-16.947" ry="0" transform="matrix(-0.8224474,-0.5688412,-0.5695776,0.8219376,0,0)" style="fill:url(#linearGradient4970);fill-opacity:1;fill-rule:nonzero;stroke:none;stroke-width:5.9000001;stroke-linecap:round;stroke-linejoin:round;stroke-miterlimit:4;stroke-dasharray:none;stroke-dashoffset:4;stroke-opacity:1"/><rect id="rect2360" width="13.039" height="2.554" x="-87.83" y="9.102" ry="0" transform="matrix(-0.8224474,-0.5688412,-0.5695776,0.8219376,0,0)" style="opacity:.36065578;fill:url(#linearGradient4949);fill-opacity:1;fill-rule:nonzero;stroke:none;stroke-width:5.9000001;stroke-linecap:round;stroke-linejoin:round;stroke-miterlimit:4;stroke-dasharray:none;stroke-dashoffset:4;stroke-opacity:1"/><path id="rect1388" d="M 66.429289,63.172679 C 65.635414,64.820033 54.923018,83.195864 49.729102,91.344581 C 39.34128,107.642 26.239281,125.86158 26.239281,125.86158 C 24.667744,128.1294 21.590814,128.67159 19.334757,127.1112 L 8.1468219,119.37313 C 5.8907745,117.81274 5.3156686,114.74463 6.887186,112.47682 C 6.887186,112.47682 19.376879,93.833728 30.860819,78.294436 C 36.602784,70.52478 49.810698,53.88547 51.006314,52.505467 C 52.212736,51.113002 53.417042,50.730504 54.693928,51.613654 C 58.435834,54.201727 62.17774,56.7898 65.919646,59.377862 C 66.995538,60.122005 67.369194,61.222275 66.429289,63.172679 z" style="fill:url(#linearGradient4967);fill-opacity:1;fill-rule:nonzero;stroke:none;stroke-width:5.9000001;stroke-linecap:round;stroke-linejoin:round;stroke-miterlimit:4;stroke-dasharray:none;stroke-dashoffset:4;stroke-opacity:1"/><path id="path2290" d="M 66.247591,63.206257 C 65.453717,64.853621 49.629,53.919059 50.824616,52.539056 C 52.031038,51.146581 53.235344,50.764082 54.51223,51.647242 C 58.254136,54.235305 61.996042,56.823378 65.737948,59.411451 C 66.81384,60.155584 67.187497,61.255863 66.247591,63.206257 z" style="opacity:.09157511;fill:url(#linearGradient4964);fill-opacity:1;fill-rule:nonzero;stroke:none;stroke-width:5.9000001;stroke-linecap:round;stroke-linejoin:round;stroke-miterlimit:4;stroke-dasharray:none;stroke-dashoffset:4;stroke-opacity:1"/><path id="path2308" d="M 26.239281,125.86158 C 24.667744,128.1294 21.590814,128.67159 19.334757,127.1112 L 8.1468219,119.37313 C 5.8907745,117.81274 5.3156686,114.74463 6.887186,112.47682 C 6.887186,112.47682 26.239281,125.86158 26.239281,125.86158 z" style="opacity:.3699634;fill:url(#linearGradient4961);fill-opacity:1;fill-rule:nonzero;stroke:none;stroke-width:5.9000001;stroke-linecap:round;stroke-linejoin:round;stroke-miterlimit:4;stroke-dasharray:none;stroke-dashoffset:4;stroke-opacity:1"/><path id="path2320" d="M 66.33068,63.19091 C 65.536805,64.838264 54.824409,83.214095 49.630493,91.362803 C 39.242661,107.66022 26.140672,125.8798 26.140672,125.8798 C 24.569135,128.14762 62.079131,56.808021 65.821037,59.396094 C 66.896928,60.140227 67.270585,61.240506 66.33068,63.19091 z" style="opacity:.3699634;fill:url(#linearGradient4958);fill-opacity:1;fill-rule:nonzero;stroke:none;stroke-width:5.9000001;stroke-linecap:round;stroke-linejoin:round;stroke-miterlimit:4;stroke-dasharray:none;stroke-dashoffset:4;stroke-opacity:1"/><path id="path2330" d="M 51.020737,52.411747 C 49.776998,53.730231 36.591653,70.167669 30.909012,77.870037 C 19.543739,93.274764 7.3898106,111.88362 7.3898106,111.88362 C 5.8550281,114.14465 58.555163,54.129906 54.752313,51.55311 C 53.658913,50.812203 52.49326,50.850706 51.020737,52.411747 z" style="opacity:.23809521;fill:url(#linearGradient4955);fill-opacity:1;fill-rule:nonzero;stroke:none;stroke-width:5.9000001;stroke-linecap:round;stroke-linejoin:round;stroke-miterlimit:4;stroke-dasharray:none;stroke-dashoffset:4;stroke-opacity:1"/><rect id="rect2350" width="12.941" height="22.484" x="-87.845" y="-16.947" ry="0" transform="matrix(-0.8224474,-0.5688412,-0.5695776,0.8219376,0,0)" style="opacity:.25;fill:url(#linearGradient4952);fill-opacity:1;fill-rule:nonzero;stroke:none;stroke-width:5.9000001;stroke-linecap:round;stroke-linejoin:round;stroke-miterlimit:4;stroke-dasharray:none;stroke-dashoffset:4;stroke-opacity:1"/><rect id="rect2364" width="12.941" height="4.125" x="-87.845" y="12.823" ry="0" transform="matrix(-0.8224474,-0.5688412,0.5695776,-0.8219376,0,0)" style="opacity:.29098361;fill:url(#linearGradient4946);fill-opacity:1;fill-rule:nonzero;stroke:none;stroke-width:5.9000001;stroke-linecap:round;stroke-linejoin:round;stroke-miterlimit:4;stroke-dasharray:none;stroke-dashoffset:4;stroke-opacity:1"/><path id="path2368" d="M -66.165305,84.213043 C -66.165305,84.722594 -66.814419,85.135667 -67.615143,85.135667 C -68.415866,85.135667 -69.06498,84.722594 -69.06498,84.213043 C -69.06498,83.703492 -68.415866,83.290419 -67.615143,83.290419 C -66.814419,83.290419 -66.165305,83.703492 -66.165305,84.213043 z" transform="matrix(-1.0010823,-0.6923933,-1.0958111,1.5813273,82.339764,-119.62564)" style="opacity:.21245422;fill:url(#radialGradient2167);fill-opacity:1;fill-rule:nonzero;stroke:none;stroke-width:5.9000001;stroke-linecap:round;stroke-linejoin:round;stroke-miterlimit:4;stroke-dasharray:none;stroke-dashoffset:4;stroke-opacity:1"/><path id="path2486" d="M -66.165305,84.213043 C -66.165305,84.722594 -66.814419,85.135667 -67.615143,85.135667 C -68.415866,85.135667 -69.06498,84.722594 -69.06498,84.213043 C -69.06498,83.703492 -68.415866,83.290419 -67.615143,83.290419 C -66.814419,83.290419 -66.165305,83.703492 -66.165305,84.213043 z" transform="matrix(-1.0010823,-0.6923933,-1.0958111,1.5813273,78.295704,-113.78978)" style="opacity:.21245422;fill:url(#radialGradient2169);fill-opacity:1;fill-rule:nonzero;stroke:none;stroke-width:5.9000001;stroke-linecap:round;stroke-linejoin:round;stroke-miterlimit:4;stroke-dasharray:none;stroke-dashoffset:4;stroke-opacity:1"/><path id="path2490" d="M -66.165305,84.213043 C -66.165305,84.722594 -66.814419,85.135667 -67.615143,85.135667 C -68.415866,85.135667 -69.06498,84.722594 -69.06498,84.213043 C -69.06498,83.703492 -68.415866,83.290419 -67.615143,83.290419 C -66.814419,83.290419 -66.165305,83.703492 -66.165305,84.213043 z" transform="matrix(-1.0010823,-0.6923933,-1.0958111,1.5813273,74.251654,-107.95391)" style="opacity:.21245422;fill:url(#radialGradient2171);fill-opacity:1;fill-rule:nonzero;stroke:none;stroke-width:5.9000001;stroke-linecap:round;stroke-linejoin:round;stroke-miterlimit:4;stroke-dasharray:none;stroke-dashoffset:4;stroke-opacity:1"/><path id="path2494" d="M -66.165305,84.213043 C -66.165305,84.722594 -66.814419,85.135667 -67.615143,85.135667 C -68.415866,85.135667 -69.06498,84.722594 -69.06498,84.213043 C -69.06498,83.703492 -68.415866,83.290419 -67.615143,83.290419 C -66.814419,83.290419 -66.165305,83.703492 -66.165305,84.213043 z" transform="matrix(-1.0010823,-0.6923933,-1.0958111,1.5813273,70.207455,-102.11799)" style="opacity:.21245422;fill:url(#radialGradient2173);fill-opacity:1;fill-rule:nonzero;stroke:none;stroke-width:5.9000001;stroke-linecap:round;stroke-linejoin:round;stroke-miterlimit:4;stroke-dasharray:none;stroke-dashoffset:4;stroke-opacity:1"/><path id="path2498" d="M -66.165305,84.213043 C -66.165305,84.722594 -66.814419,85.135667 -67.615143,85.135667 C -68.415866,85.135667 -69.06498,84.722594 -69.06498,84.213043 C -69.06498,83.703492 -68.415866,83.290419 -67.615143,83.290419 C -66.814419,83.290419 -66.165305,83.703492 -66.165305,84.213043 z" transform="matrix(-1.0010823,-0.6923933,-1.0958111,1.5813273,66.163405,-96.282126)" style="opacity:.21245422;fill:url(#radialGradient2175);fill-opacity:1;fill-rule:nonzero;stroke:none;stroke-width:5.9000001;stroke-linecap:round;stroke-linejoin:round;stroke-miterlimit:4;stroke-dasharray:none;stroke-dashoffset:4;stroke-opacity:1"/><path id="path2502" d="M -66.165305,84.213043 C -66.165305,84.722594 -66.814419,85.135667 -67.615143,85.135667 C -68.415866,85.135667 -69.06498,84.722594 -69.06498,84.213043 C -69.06498,83.703492 -68.415866,83.290419 -67.615143,83.290419 C -66.814419,83.290419 -66.165305,83.703492 -66.165305,84.213043 z" transform="matrix(-1.0010823,-0.6923933,-1.0958111,1.5813273,62.119257,-90.446221)" style="opacity:.21245422;fill:url(#radialGradient2177);fill-opacity:1;fill-rule:nonzero;stroke:none;stroke-width:5.9000001;stroke-linecap:round;stroke-linejoin:round;stroke-miterlimit:4;stroke-dasharray:none;stroke-dashoffset:4;stroke-opacity:1"/><path id="path2506" d="M -66.165305,84.213043 C -66.165305,84.722594 -66.814419,85.135667 -67.615143,85.135667 C -68.415866,85.135667 -69.06498,84.722594 -69.06498,84.213043 C -69.06498,83.703492 -68.415866,83.290419 -67.615143,83.290419 C -66.814419,83.290419 -66.165305,83.703492 -66.165305,84.213043 z" transform="matrix(-1.0010823,-0.6923933,-1.0958111,1.5813273,57.401175,-83.637696)" style="opacity:.21245422;fill:url(#radialGradient2179);fill-opacity:1;fill-rule:nonzero;stroke:none;stroke-width:5.9000001;stroke-linecap:round;stroke-linejoin:round;stroke-miterlimit:4;stroke-dasharray:none;stroke-dashoffset:4;stroke-opacity:1"/><path id="path2510" d="M -66.165305,84.213043 C -66.165305,84.722594 -66.814419,85.135667 -67.615143,85.135667 C -68.415866,85.135667 -69.06498,84.722594 -69.06498,84.213043 C -69.06498,83.703492 -68.415866,83.290419 -67.615143,83.290419 C -66.814419,83.290419 -66.165305,83.703492 -66.165305,84.213043 z" transform="matrix(-1.0010823,-0.6923933,-1.0958111,1.5813273,53.357125,-77.801811)" style="opacity:.21245422;fill:url(#radialGradient2181);fill-opacity:1;fill-rule:nonzero;stroke:none;stroke-width:5.9000001;stroke-linecap:round;stroke-linejoin:round;stroke-miterlimit:4;stroke-dasharray:none;stroke-dashoffset:4;stroke-opacity:1"/><path id="path2514" d="M -66.165305,84.213043 C -66.165305,84.722594 -66.814419,85.135667 -67.615143,85.135667 C -68.415866,85.135667 -69.06498,84.722594 -69.06498,84.213043 C -69.06498,83.703492 -68.415866,83.290419 -67.615143,83.290419 C -66.814419,83.290419 -66.165305,83.703492 -66.165305,84.213043 z" transform="matrix(-1.0010823,-0.6923933,-1.0958111,1.5813273,49.312966,-71.965905)" style="opacity:.21245422;fill:url(#radialGradient2183);fill-opacity:1;fill-rule:nonzero;stroke:none;stroke-width:5.9000001;stroke-linecap:round;stroke-linejoin:round;stroke-miterlimit:4;stroke-dasharray:none;stroke-dashoffset:4;stroke-opacity:1"/><path id="path2518" d="M -66.165305,84.213043 C -66.165305,84.722594 -66.814419,85.135667 -67.615143,85.135667 C -68.415866,85.135667 -69.06498,84.722594 -69.06498,84.213043 C -69.06498,83.703492 -68.415866,83.290419 -67.615143,83.290419 C -66.814419,83.290419 -66.165305,83.703492 -66.165305,84.213043 z" transform="matrix(-1.0010823,-0.6923933,-1.0958111,1.5813273,45.268916,-66.13003)" style="opacity:.21245422;fill:url(#radialGradient2185);fill-opacity:1;fill-rule:nonzero;stroke:none;stroke-width:5.9000001;stroke-linecap:round;stroke-linejoin:round;stroke-miterlimit:4;stroke-dasharray:none;stroke-dashoffset:4;stroke-opacity:1"/><path id="path2522" d="M -66.165305,84.213043 C -66.165305,84.722594 -66.814419,85.135667 -67.615143,85.135667 C -68.415866,85.135667 -69.06498,84.722594 -69.06498,84.213043 C -69.06498,83.703492 -68.415866,83.290419 -67.615143,83.290419 C -66.814419,83.290419 -66.165305,83.703492 -66.165305,84.213043 z" transform="matrix(-1.0010823,-0.6923933,-1.0958111,1.5813273,45.268916,-66.13003)" style="opacity:.21245422;fill:url(#radialGradient2187);fill-opacity:1;fill-rule:nonzero;stroke:none;stroke-width:5.9000001;stroke-linecap:round;stroke-linejoin:round;stroke-miterlimit:4;stroke-dasharray:none;stroke-dashoffset:4;stroke-opacity:1"/><path id="path2524" d="M -66.165305,84.213043 C -66.165305,84.722594 -66.814419,85.135667 -67.615143,85.135667 C -68.415866,85.135667 -69.06498,84.722594 -69.06498,84.213043 C -69.06498,83.703492 -68.415866,83.290419 -67.615143,83.290419 C -66.814419,83.290419 -66.165305,83.703492 -66.165305,84.213043 z" transform="matrix(-1.0010823,-0.6923933,-1.0958111,1.5813273,74.51209,-120.72315)" style="opacity:.21245422;fill:url(#radialGradient2189);fill-opacity:1;fill-rule:nonzero;stroke:none;stroke-width:5.9000001;stroke-linecap:round;stroke-linejoin:round;stroke-miterlimit:4;stroke-dasharray:none;stroke-dashoffset:4;stroke-opacity:1"/><path id="path2526" d="M -66.165305,84.213043 C -66.165305,84.722594 -66.814419,85.135667 -67.615143,85.135667 C -68.415866,85.135667 -69.06498,84.722594 -69.06498,84.213043 C -69.06498,83.703492 -68.415866,83.290419 -67.615143,83.290419 C -66.814419,83.290419 -66.165305,83.703492 -66.165305,84.213043 z" transform="matrix(-1.0010823,-0.6923933,-1.0958111,1.5813273,70.468031,-114.88732)" style="opacity:.21245422;fill:url(#radialGradient2191);fill-opacity:1;fill-rule:nonzero;stroke:none;stroke-width:5.9000001;stroke-linecap:round;stroke-linejoin:round;stroke-miterlimit:4;stroke-dasharray:none;stroke-dashoffset:4;stroke-opacity:1"/><path id="path2528" d="M -66.165305,84.213043 C -66.165305,84.722594 -66.814419,85.135667 -67.615143,85.135667 C -68.415866,85.135667 -69.06498,84.722594 -69.06498,84.213043 C -69.06498,83.703492 -68.415866,83.290419 -67.615143,83.290419 C -66.814419,83.290419 -66.165305,83.703492 -66.165305,84.213043 z" transform="matrix(-1.0010823,-0.6923933,-1.0958111,1.5813273,66.423951,-109.05138)" style="opacity:.21245422;fill:url(#radialGradient2193);fill-opacity:1;fill-rule:nonzero;stroke:none;stroke-width:5.9000001;stroke-linecap:round;stroke-linejoin:round;stroke-miterlimit:4;stroke-dasharray:none;stroke-dashoffset:4;stroke-opacity:1"/><path id="path2530" d="M -66.165305,84.213043 C -66.165305,84.722594 -66.814419,85.135667 -67.615143,85.135667 C -68.415866,85.135667 -69.06498,84.722594 -69.06498,84.213043 C -69.06498,83.703492 -68.415866,83.290419 -67.615143,83.290419 C -66.814419,83.290419 -66.165305,83.703492 -66.165305,84.213043 z" transform="matrix(-1.0010823,-0.6923933,-1.0958111,1.5813273,62.379792,-103.21548)" style="opacity:.21245422;fill:url(#radialGradient2195);fill-opacity:1;fill-rule:nonzero;stroke:none;stroke-width:5.9000001;stroke-linecap:round;stroke-linejoin:round;stroke-miterlimit:4;stroke-dasharray:none;stroke-dashoffset:4;stroke-opacity:1"/><path id="path2532" d="M -66.165305,84.213043 C -66.165305,84.722594 -66.814419,85.135667 -67.615143,85.135667 C -68.415866,85.135667 -69.06498,84.722594 -69.06498,84.213043 C -69.06498,83.703492 -68.415866,83.290419 -67.615143,83.290419 C -66.814419,83.290419 -66.165305,83.703492 -66.165305,84.213043 z" transform="matrix(-1.0010823,-0.6923933,-1.0958111,1.5813273,58.335742,-97.379601)" style="opacity:.21245422;fill:url(#radialGradient2197);fill-opacity:1;fill-rule:nonzero;stroke:none;stroke-width:5.9000001;stroke-linecap:round;stroke-linejoin:round;stroke-miterlimit:4;stroke-dasharray:none;stroke-dashoffset:4;stroke-opacity:1"/><path id="path2534" d="M -66.165305,84.213043 C -66.165305,84.722594 -66.814419,85.135667 -67.615143,85.135667 C -68.415866,85.135667 -69.06498,84.722594 -69.06498,84.213043 C -69.06498,83.703492 -68.415866,83.290419 -67.615143,83.290419 C -66.814419,83.290419 -66.165305,83.703492 -66.165305,84.213043 z" transform="matrix(-1.0010823,-0.6923933,-1.0958111,1.5813273,54.291593,-91.543696)" style="opacity:.21245422;fill:url(#radialGradient2199);fill-opacity:1;fill-rule:nonzero;stroke:none;stroke-width:5.9000001;stroke-linecap:round;stroke-linejoin:round;stroke-miterlimit:4;stroke-dasharray:none;stroke-dashoffset:4;stroke-opacity:1"/><path id="path2536" d="M -66.165305,84.213043 C -66.165305,84.722594 -66.814419,85.135667 -67.615143,85.135667 C -68.415866,85.135667 -69.06498,84.722594 -69.06498,84.213043 C -69.06498,83.703492 -68.415866,83.290419 -67.615143,83.290419 C -66.814419,83.290419 -66.165305,83.703492 -66.165305,84.213043 z" transform="matrix(-1.0010823,-0.6923933,-1.0958111,1.5813273,49.573512,-84.735171)" style="opacity:.21245422;fill:url(#radialGradient2201);fill-opacity:1;fill-rule:nonzero;stroke:none;stroke-width:5.9000001;stroke-linecap:round;stroke-linejoin:round;stroke-miterlimit:4;stroke-dasharray:none;stroke-dashoffset:4;stroke-opacity:1"/><path id="path2538" d="M -66.165305,84.213043 C -66.165305,84.722594 -66.814419,85.135667 -67.615143,85.135667 C -68.415866,85.135667 -69.06498,84.722594 -69.06498,84.213043 C -69.06498,83.703492 -68.415866,83.290419 -67.615143,83.290419 C -66.814419,83.290419 -66.165305,83.703492 -66.165305,84.213043 z" transform="matrix(-1.0010823,-0.6923933,-1.0958111,1.5813273,45.529462,-78.899296)" style="opacity:.21245422;fill:url(#radialGradient2203);fill-opacity:1;fill-rule:nonzero;stroke:none;stroke-width:5.9000001;stroke-linecap:round;stroke-linejoin:round;stroke-miterlimit:4;stroke-dasharray:none;stroke-dashoffset:4;stroke-opacity:1"/><path id="path2540" d="M -66.165305,84.213043 C -66.165305,84.722594 -66.814419,85.135667 -67.615143,85.135667 C -68.415866,85.135667 -69.06498,84.722594 -69.06498,84.213043 C -69.06498,83.703492 -68.415866,83.290419 -67.615143,83.290419 C -66.814419,83.290419 -66.165305,83.703492 -66.165305,84.213043 z" transform="matrix(-1.0010823,-0.6923933,-1.0958111,1.5813273,41.485303,-73.063401)" style="opacity:.21245422;fill:url(#radialGradient2205);fill-opacity:1;fill-rule:nonzero;stroke:none;stroke-width:5.9000001;stroke-linecap:round;stroke-linejoin:round;stroke-miterlimit:4;stroke-dasharray:none;stroke-dashoffset:4;stroke-opacity:1"/><path id="path2542" d="M -66.165305,84.213043 C -66.165305,84.722594 -66.814419,85.135667 -67.615143,85.135667 C -68.415866,85.135667 -69.06498,84.722594 -69.06498,84.213043 C -69.06498,83.703492 -68.415866,83.290419 -67.615143,83.290419 C -66.814419,83.290419 -66.165305,83.703492 -66.165305,84.213043 z" transform="matrix(-1.0010823,-0.6923933,-1.0958111,1.5813273,37.441253,-67.227515)" style="opacity:.21245422;fill:url(#radialGradient2207);fill-opacity:1;fill-rule:nonzero;stroke:none;stroke-width:5.9000001;stroke-linecap:round;stroke-linejoin:round;stroke-miterlimit:4;stroke-dasharray:none;stroke-dashoffset:4;stroke-opacity:1"/><path id="path2544" d="M -66.165305,84.213043 C -66.165305,84.722594 -66.814419,85.135667 -67.615143,85.135667 C -68.415866,85.135667 -69.06498,84.722594 -69.06498,84.213043 C -69.06498,83.703492 -68.415866,83.290419 -67.615143,83.290419 C -66.814419,83.290419 -66.165305,83.703492 -66.165305,84.213043 z" transform="matrix(-1.0010823,-0.6923933,-1.0958111,1.5813273,37.441253,-67.227515)" style="opacity:.21245422;fill:url(#radialGradient2209);fill-opacity:1;fill-rule:nonzero;stroke:none;stroke-width:5.9000001;stroke-linecap:round;stroke-linejoin:round;stroke-miterlimit:4;stroke-dasharray:none;stroke-dashoffset:4;stroke-opacity:1"/><path id="path2568" d="M -66.165305,84.213043 C -66.165305,84.722594 -66.814419,85.135667 -67.615143,85.135667 C -68.415866,85.135667 -69.06498,84.722594 -69.06498,84.213043 C -69.06498,83.703492 -68.415866,83.290419 -67.615143,83.290419 C -66.814419,83.290419 -66.165305,83.703492 -66.165305,84.213043 z" transform="matrix(-1.0010823,-0.6923933,-1.0958111,1.5813273,86.123367,-112.6923)" style="opacity:.21245422;fill:url(#radialGradient2211);fill-opacity:1;fill-rule:nonzero;stroke:none;stroke-width:5.9000001;stroke-linecap:round;stroke-linejoin:round;stroke-miterlimit:4;stroke-dasharray:none;stroke-dashoffset:4;stroke-opacity:1"/><path id="path2570" d="M -66.165305,84.213043 C -66.165305,84.722594 -66.814419,85.135667 -67.615143,85.135667 C -68.415866,85.135667 -69.06498,84.722594 -69.06498,84.213043 C -69.06498,83.703492 -68.415866,83.290419 -67.615143,83.290419 C -66.814419,83.290419 -66.165305,83.703492 -66.165305,84.213043 z" transform="matrix(-1.0010823,-0.6923933,-1.0958111,1.5813273,82.079218,-106.85639)" style="opacity:.21245422;fill:url(#radialGradient2213);fill-opacity:1;fill-rule:nonzero;stroke:none;stroke-width:5.9000001;stroke-linecap:round;stroke-linejoin:round;stroke-miterlimit:4;stroke-dasharray:none;stroke-dashoffset:4;stroke-opacity:1"/><path id="path2572" d="M -66.165305,84.213043 C -66.165305,84.722594 -66.814419,85.135667 -67.615143,85.135667 C -68.415866,85.135667 -69.06498,84.722594 -69.06498,84.213043 C -69.06498,83.703492 -68.415866,83.290419 -67.615143,83.290419 C -66.814419,83.290419 -66.165305,83.703492 -66.165305,84.213043 z" transform="matrix(-1.0010823,-0.6923933,-1.0958111,1.5813273,78.035168,-101.02052)" style="opacity:.21245422;fill:url(#radialGradient2215);fill-opacity:1;fill-rule:nonzero;stroke:none;stroke-width:5.9000001;stroke-linecap:round;stroke-linejoin:round;stroke-miterlimit:4;stroke-dasharray:none;stroke-dashoffset:4;stroke-opacity:1"/><path id="path2574" d="M -66.165305,84.213043 C -66.165305,84.722594 -66.814419,85.135667 -67.615143,85.135667 C -68.415866,85.135667 -69.06498,84.722594 -69.06498,84.213043 C -69.06498,83.703492 -68.415866,83.290419 -67.615143,83.290419 C -66.814419,83.290419 -66.165305,83.703492 -66.165305,84.213043 z" transform="matrix(-1.0010823,-0.6923933,-1.0958111,1.5813273,73.991108,-95.18463)" style="opacity:.21245422;fill:url(#radialGradient2217);fill-opacity:1;fill-rule:nonzero;stroke:none;stroke-width:5.9000001;stroke-linecap:round;stroke-linejoin:round;stroke-miterlimit:4;stroke-dasharray:none;stroke-dashoffset:4;stroke-opacity:1"/><path id="path2576" d="M -66.165305,84.213043 C -66.165305,84.722594 -66.814419,85.135667 -67.615143,85.135667 C -68.415866,85.135667 -69.06498,84.722594 -69.06498,84.213043 C -69.06498,83.703492 -68.415866,83.290419 -67.615143,83.290419 C -66.814419,83.290419 -66.165305,83.703492 -66.165305,84.213043 z" transform="matrix(-1.0010823,-0.6923933,-1.0958111,1.5813273,69.947019,-89.348755)" style="opacity:.21245422;fill:url(#radialGradient2219);fill-opacity:1;fill-rule:nonzero;stroke:none;stroke-width:5.9000001;stroke-linecap:round;stroke-linejoin:round;stroke-miterlimit:4;stroke-dasharray:none;stroke-dashoffset:4;stroke-opacity:1"/><path id="path2578" d="M -66.165305,84.213043 C -66.165305,84.722594 -66.814419,85.135667 -67.615143,85.135667 C -68.415866,85.135667 -69.06498,84.722594 -69.06498,84.213043 C -69.06498,83.703492 -68.415866,83.290419 -67.615143,83.290419 C -66.814419,83.290419 -66.165305,83.703492 -66.165305,84.213043 z" transform="matrix(-1.0010823,-0.6923933,-1.0958111,1.5813273,65.90286,-83.51285)" style="opacity:.21245422;fill:url(#radialGradient2221);fill-opacity:1;fill-rule:nonzero;stroke:none;stroke-width:5.9000001;stroke-linecap:round;stroke-linejoin:round;stroke-miterlimit:4;stroke-dasharray:none;stroke-dashoffset:4;stroke-opacity:1"/><path id="path2580" d="M -66.165305,84.213043 C -66.165305,84.722594 -66.814419,85.135667 -67.615143,85.135667 C -68.415866,85.135667 -69.06498,84.722594 -69.06498,84.213043 C -69.06498,83.703492 -68.415866,83.290419 -67.615143,83.290419 C -66.814419,83.290419 -66.165305,83.703492 -66.165305,84.213043 z" transform="matrix(-1.0010823,-0.6923933,-1.0958111,1.5813273,61.184788,-76.704325)" style="opacity:.21245422;fill:url(#radialGradient2223);fill-opacity:1;fill-rule:nonzero;stroke:none;stroke-width:5.9000001;stroke-linecap:round;stroke-linejoin:round;stroke-miterlimit:4;stroke-dasharray:none;stroke-dashoffset:4;stroke-opacity:1"/><path id="path2582" d="M -66.165305,84.213043 C -66.165305,84.722594 -66.814419,85.135667 -67.615143,85.135667 C -68.415866,85.135667 -69.06498,84.722594 -69.06498,84.213043 C -69.06498,83.703492 -68.415866,83.290419 -67.615143,83.290419 C -66.814419,83.290419 -66.165305,83.703492 -66.165305,84.213043 z" transform="matrix(-1.0010823,-0.6923933,-1.0958111,1.5813273,57.14063,-70.86842)" style="opacity:.21245422;fill:url(#radialGradient2225);fill-opacity:1;fill-rule:nonzero;stroke:none;stroke-width:5.9000001;stroke-linecap:round;stroke-linejoin:round;stroke-miterlimit:4;stroke-dasharray:none;stroke-dashoffset:4;stroke-opacity:1"/><path id="path2584" d="M -66.165305,84.213043 C -66.165305,84.722594 -66.814419,85.135667 -67.615143,85.135667 C -68.415866,85.135667 -69.06498,84.722594 -69.06498,84.213043 C -69.06498,83.703492 -68.415866,83.290419 -67.615143,83.290419 C -66.814419,83.290419 -66.165305,83.703492 -66.165305,84.213043 z" transform="matrix(-1.0010823,-0.6923933,-1.0958111,1.5813273,53.09658,-65.032544)" style="opacity:.21245422;fill:url(#radialGradient2227);fill-opacity:1;fill-rule:nonzero;stroke:none;stroke-width:5.9000001;stroke-linecap:round;stroke-linejoin:round;stroke-miterlimit:4;stroke-dasharray:none;stroke-dashoffset:4;stroke-opacity:1"/><path id="path2586" d="M -66.165305,84.213043 C -66.165305,84.722594 -66.814419,85.135667 -67.615143,85.135667 C -68.415866,85.135667 -69.06498,84.722594 -69.06498,84.213043 C -69.06498,83.703492 -68.415866,83.290419 -67.615143,83.290419 C -66.814419,83.290419 -66.165305,83.703492 -66.165305,84.213043 z" transform="matrix(-1.0010823,-0.6923933,-1.0958111,1.5813273,49.05253,-59.196659)" style="opacity:.21245422;fill:url(#radialGradient2229);fill-opacity:1;fill-rule:nonzero;stroke:none;stroke-width:5.9000001;stroke-linecap:round;stroke-linejoin:round;stroke-miterlimit:4;stroke-dasharray:none;stroke-dashoffset:4;stroke-opacity:1"/><path id="path2588" d="M -66.165305,84.213043 C -66.165305,84.722594 -66.814419,85.135667 -67.615143,85.135667 C -68.415866,85.135667 -69.06498,84.722594 -69.06498,84.213043 C -69.06498,83.703492 -68.415866,83.290419 -67.615143,83.290419 C -66.814419,83.290419 -66.165305,83.703492 -66.165305,84.213043 z" transform="matrix(-1.0010823,-0.6923933,-1.0958111,1.5813273,49.05253,-59.196659)" style="opacity:.21245422;fill:url(#radialGradient2231);fill-opacity:1;fill-rule:nonzero;stroke:none;stroke-width:5.9000001;stroke-linecap:round;stroke-linejoin:round;stroke-miterlimit:4;stroke-dasharray:none;stroke-dashoffset:4;stroke-opacity:1"/><path id="path2783" d="M 101.38809,11.479353 C 102.63809,12.398423 103.84894,13.381344 105.0387,14.408949 C 104.01321,16.577326 100.48534,20.746249 99.007199,22.467323 C 98.01495,23.622639 93.281961,23.36178 91.998392,24.319263 C 87.944052,27.343595 84.815519,31.864815 80.922501,35.138608 L 72.655729,29.510877 C 72.667829,29.490354 72.685732,29.470645 72.697861,29.450092 C 72.67379,29.475982 72.628395,29.495037 72.604432,29.520354 L 71.432076,28.709507 C 71.432067,28.709497 76.539137,19.842938 71.897343,16.081861 C 61.421124,7.5933688 42.104321,12.7028 40.367328,14.0543 L 42.083541,7.259695 C 42.083541,7.259695 42.33779,7.1294014 42.380871,7.1146373 C 59.53124,-3.8488001 84.402814,-1.0092155 101.38809,11.479353 z" style="fill:url(#linearGradient4910);fill-opacity:1;fill-rule:evenodd;stroke:none;stroke-width:.1;stroke-linecap:butt;stroke-linejoin:miter;stroke-miterlimit:4;stroke-dasharray:none;stroke-opacity:1"/><path id="path2823" d="M 103.83475,-5.0595755 C 104.3991,-4.5551745 105.41114,-5.6873565 104.63008,-6.2226895 C 74.632493,-27.821939 51.99515,-17.681556 42.936426,-11.517296 C 52.35952,-18.300887 76.609727,-26.230729 103.83475,-5.0595755 z" clip-path="url(#clipPath5354)" transform="matrix(0.9885623,0,0,1.0050417,-0.1118743,19.455454)" style="opacity:1;fill:#000;fill-opacity:1;fill-rule:evenodd;stroke:none;stroke-width:1px;stroke-linecap:butt;stroke-linejoin:miter;stroke-opacity:1;filter:url(#filter5739)"/><path id="path2842" d="M 72.232891,29.69503 L 71.135399,28.798503 C 71.135399,28.798503 76.660088,19.926598 72.018284,16.16551 C 60.890029,7.1486982 41.128521,13.402952 40.58322,14.173176 L 42.107732,7.2764289 C 42.107732,7.2764289 62.101176,-0.96025992 73.950973,7.4166021 C 82.164175,13.221703 76.243429,25.456347 72.232891,29.69503 z" style="opacity:.23360656;fill:url(#radialGradient4903);fill-opacity:1;fill-rule:evenodd;stroke:none;stroke-width:.1;stroke-linecap:butt;stroke-linejoin:miter;stroke-miterlimit:4;stroke-dasharray:none;stroke-opacity:1"/><path id="path2827" d="M 72.523172,29.895808 L 71.135399,28.798503 C 71.135399,28.798503 76.660088,19.926598 72.018284,16.16551 C 60.890029,7.1486982 41.022844,13.705088 40.58322,14.173176 L 42.107732,7.2764289 C 42.107732,7.2764289 62.235986,-1.1547857 74.085773,7.2220662 C 82.298976,13.027177 76.53371,25.657124 72.523172,29.895808 z" style="opacity:.23360656;fill:url(#radialGradient4900);fill-opacity:1;fill-rule:evenodd;stroke:none;stroke-width:.1;stroke-linecap:butt;stroke-linejoin:miter;stroke-miterlimit:4;stroke-dasharray:none;stroke-opacity:1"/><path id="path2844" d="M 73.103735,30.297352 L 71.135399,28.798503 C 71.135399,28.798503 76.660088,19.926598 72.018284,16.16551 C 60.890029,7.1486982 40.89179,13.624865 40.576201,14.168322 L 42.322269,7.4456578 C 42.322269,7.4456578 62.640397,-1.7383733 74.490184,6.6384787 C 82.703386,12.44359 77.114273,26.058669 73.103735,30.297352 z" style="opacity:.0737705;fill:url(#radialGradient4897);fill-opacity:1;fill-rule:evenodd;stroke:none;stroke-width:.1;stroke-linecap:butt;stroke-linejoin:miter;stroke-miterlimit:4;stroke-dasharray:none;stroke-opacity:1"/><path id="path2840" d="M 72.232891,29.69503 L 71.135399,28.798503 C 71.135399,28.798503 76.660088,19.926598 72.018284,16.16551 C 60.890029,7.1486982 40.984171,13.626222 40.566444,14.182412 L 42.334152,7.4434568 C 42.334152,7.4434568 61.966375,-0.76572405 73.816172,7.6111279 C 82.029375,13.416239 76.243429,25.456347 72.232891,29.69503 z" style="opacity:.23360656;fill:url(#radialGradient4894);fill-opacity:1;fill-rule:evenodd;stroke:none;stroke-width:.1;stroke-linecap:butt;stroke-linejoin:miter;stroke-miterlimit:4;stroke-dasharray:none;stroke-opacity:1"/><path id="path2862" d="M 72.13613,29.628115 L 71.135399,28.798503 C 71.135399,28.798503 76.660088,19.926598 72.018284,16.16551 C 60.890029,7.1486982 40.921635,13.665037 40.571002,14.184262 L 42.322269,7.4456578 C 42.322269,7.4456578 61.764175,-0.47393028 73.613962,7.9029217 C 81.827164,13.708033 76.146668,25.389432 72.13613,29.628115 z" style="opacity:.37000002;fill:url(#radialGradient4891);fill-opacity:1;fill-rule:evenodd;stroke:none;stroke-width:.1;stroke-linecap:butt;stroke-linejoin:miter;stroke-miterlimit:4;stroke-dasharray:none;stroke-opacity:1"/><path id="path2868" d="M 61.41113,8.3780551 C 54.11035,6.6553332 42.963569,9.4974003 40.902427,12.001391 L 41.0016,10.631158 C 43.787546,7.6855914 53.80009,5.6303314 60.912865,6.8618995 C 62.075305,7.0631792 62.003061,8.5177258 61.41113,8.3780551 z" style="opacity:.31000001;fill:url(#linearGradient4888);fill-opacity:1;fill-rule:evenodd;stroke:none;stroke-width:1px;stroke-linecap:butt;stroke-linejoin:miter;stroke-opacity:1"/><path id="path2872" d="M 42.085054,7.2558055 L 40.347458,14.03836 L 40.579642,14.198955 L 42.326056,7.4656582 L 42.085054,7.2558055 z" style="opacity:.11000001;fill:#b7b7b7;fill-opacity:1;fill-rule:evenodd;stroke:none;stroke-width:1px;stroke-linecap:butt;stroke-linejoin:miter;stroke-opacity:1"/><path id="path2936" d="M 81.865056,36.103558 L 80.621731,34.841548 C 90.450353,25.575234 89.793503,23.516486 95.950625,22.98307 C 98.195669,22.788575 103.22118,19.851069 102.52483,17.34553 C 101.28955,12.900833 104.51185,12.778691 106.76072,16.351101 C 107.83597,18.05917 108.68046,20.615514 109.44612,22.532309 L 119.87216,26.128429 L 125.67859,30.507526 C 123.13963,35.644506 121.44894,38.490512 117.56384,42.696451 L 111.17842,38.965656 L 103.77633,29.053301 C 97.649281,27.059128 88.562348,29.712528 81.865056,36.103558 z" style="opacity:.5286885;fill:url(#linearGradient4880);fill-opacity:1;fill-rule:evenodd;stroke:none;stroke-width:.1;stroke-linecap:butt;stroke-linejoin:miter;stroke-miterlimit:4;stroke-dasharray:none;stroke-opacity:1"/><path id="path2902" d="M 82.925411,-3.435412 L 81.316892,-4.627315 C 96.447179,-28.288297 105.15658,-12.530013 103.93871,-26.883344 C 105.73798,-25.86955 109.49801,-20.714107 110.82559,-16.938578 L 121.37226,-13.3605 L 127.24587,-9.003369 C 124.67754,-3.892162 121.60365,0.875112 117.6736,5.059949 L 111.2143,1.347869 L 103.72658,-8.514759 C 97.528633,-10.498934 89.700195,-9.79438 82.925411,-3.435412 z" clip-path="url(#clipPath6914)" transform="matrix(0.9885623,0,0,1.0050417,-0.1118743,39.556289)" style="opacity:.3;fill:#4b4b4c;fill-opacity:1;fill-rule:evenodd;stroke:none;stroke-width:.1;stroke-linecap:butt;stroke-linejoin:miter;stroke-miterlimit:4;stroke-dasharray:none;stroke-opacity:1;filter:url(#filter7303)"/><path id="path2904" d="M 81.865056,36.103558 L 80.621731,34.841548 C 90.450353,25.575234 89.936568,23.945458 96.09369,23.412042 C 98.338733,23.217547 99.058515,23.054066 102.62556,17.81605 C 104.97193,14.370546 105.5052,13.664595 106.76072,16.351101 C 107.72182,18.407618 108.78993,20.635031 109.44612,22.532309 L 119.87216,26.128429 L 125.67859,30.507526 C 123.13963,35.644506 120.1009,40.435811 116.2158,44.64175 L 109.83038,40.910954 L 102.42831,30.9986 C 96.301248,29.004426 88.562348,29.712528 81.865056,36.103558 z" style="opacity:.11065572;fill:#4b4b4c;fill-opacity:1;fill-rule:evenodd;stroke:none;stroke-width:.1;stroke-linecap:butt;stroke-linejoin:miter;stroke-miterlimit:4;stroke-dasharray:none;stroke-opacity:1"/><path id="path2946" d="M 81.865056,36.103558 L 80.621731,34.841548 C 90.450353,25.575234 90.178924,23.81633 96.336045,23.282914 C 98.581099,23.088419 99.46084,22.257119 102.66207,17.556297 C 105.00842,14.110793 105.5052,13.664595 106.76072,16.351101 C 107.72182,18.407618 108.78993,20.635031 109.44612,22.532309 L 119.87216,26.128429 L 125.67859,30.507526 C 123.13963,35.644506 120.1009,40.435811 116.2158,44.64175 L 109.83038,40.910954 L 102.42831,30.9986 C 96.301248,29.004426 88.562348,29.712528 81.865056,36.103558 z" style="opacity:.78278689;fill:url(#linearGradient4874);fill-opacity:1;fill-rule:evenodd;stroke:none;stroke-width:.1;stroke-linecap:butt;stroke-linejoin:miter;stroke-miterlimit:4;stroke-dasharray:none;stroke-opacity:1"/><path id="path2906" d="M 82.186467,36.425805 L 80.943143,35.163804 C 90.771765,25.89748 90.156661,24.109531 96.307061,23.50126 C 99.068954,23.228099 101.46217,20.125666 103.03896,17.817699 C 105.39113,14.376285 105.82661,13.986851 107.08213,16.673348 C 108.04323,18.729874 109.11134,20.957278 109.76753,22.854566 L 120.19358,26.450685 L 126,30.829783 C 123.46105,35.966762 120.42231,40.758067 116.53723,44.964006 L 110.15179,41.233211 L 102.74972,31.320856 C 96.622659,29.326673 88.883759,30.034785 82.186467,36.425805 z" style="opacity:.55;fill:url(#radialGradient4871);fill-opacity:1;fill-rule:evenodd;stroke:none;stroke-width:.1;stroke-linecap:butt;stroke-linejoin:miter;stroke-miterlimit:4;stroke-dasharray:none;stroke-opacity:1"/><path id="path2924" d="M 82.052576,35.677069 L 80.809252,34.415058 C 90.637874,25.148744 90.316354,23.346463 96.463708,22.707247 C 99.198595,22.422217 99.463846,21.382923 102.80287,17.054108 C 105.34611,13.756144 105.69272,13.238105 106.94825,15.924612 C 107.90935,17.981128 108.97746,20.208542 109.63365,22.10582 L 120.05969,25.701939 L 125.86612,30.081037 C 123.32716,35.218016 120.28843,40.009321 116.40334,44.21526 L 110.0179,40.484465 L 102.61584,30.57211 C 96.488778,28.577937 88.749878,29.286039 82.052576,35.677069 z" style="opacity:.76000001;fill:url(#radialGradient4868);fill-opacity:1;fill-rule:evenodd;stroke:none;stroke-width:.1;stroke-linecap:butt;stroke-linejoin:miter;stroke-miterlimit:4;stroke-dasharray:none;stroke-opacity:1"/><path id="path2876" d="M 47.840924,43.680889 C 47.84099,46.032991 47.832065,48.210404 47.817526,49.389142 C 47.802987,50.56788 47.785056,50.56788 47.770517,49.389142 C 47.755978,48.210404 47.747053,46.032991 47.747119,43.680889 C 47.747053,41.328787 47.755978,39.151374 47.770517,37.972636 C 47.785056,36.793898 47.802987,36.793898 47.817526,37.972636 C 47.832065,39.151374 47.84099,41.328787 47.840924,43.680889 z" transform="matrix(-10.643649,-7.3616191,-0.6740154,0.9726479,659.11339,347.51792)" style="fill:url(#radialGradient2257);fill-opacity:1;fill-rule:nonzero;stroke:none;stroke-width:.1;stroke-linecap:round;stroke-linejoin:round;stroke-miterlimit:4;stroke-dasharray:none;stroke-dashoffset:4;stroke-opacity:1"/><path id="path3178" d="M 125.16669,12.099598 C 121.62206,9.685606 112.43786,3.516506 110.99761,5.712023 C 109.26099,8.35934 118.0322,14.038156 121.74406,16.587139 C 122.92246,17.396368 126.3079,12.876785 125.16669,12.099598 z" clip-path="url(#clipPath6130)" transform="matrix(0.9885623,0,0,1.0050417,-0.1118743,19.455454)" style="fill:url(#linearGradient6134);fill-opacity:1;fill-rule:evenodd;stroke:none;stroke-width:1px;stroke-linecap:butt;stroke-linejoin:miter;stroke-opacity:1;filter:url(#filter6906)"/></g></svg>